<ttFont>
          <CharString index="0">
            rmoveto
            -100 15 callsubr
            75 hlineto
            80 80 81 -80 rlineto
            75 hlineto
            -101 138 rlineto
            endchar
          </CharString>
          <CharString index="1">
            505 62 -106 callgsubr
            231 -336 -231 hlineto
            return
          </CharString>
          <CharString index="2">
            615 62 rmoveto
            -100 callsubr
            293 hlineto
            -309 620 rmoveto
            return
          </CharString>
          <CharString index="3">
            116 -67 rlineto
            return
          </CharString>
          <CharString index="4">
            -116 67 rlineto
            return
          </CharString>
          <CharString index="5">
            rmoveto
            -101 callgsubr
          </CharString>
          <CharString index="6">
            -72 callsubr
            231 97 vstem
            -106 callsubr
            return
          </CharString>
          <CharString index="7">
            -85 callsubr
            -293 hlineto
            -103 callgsubr
            -576 vlineto
            -104 callsubr
            return
          </CharString>
          <CharString index="8">
            -82 callsubr
            -92 callgsubr
          </CharString>
          <CharString index="9">
            80 -38 callsubr
            128 rlineto
            -130 hlineto
            return
          </CharString>
          <CharString index="10">
            hlineto
            -96 callsubr
            return
          </CharString>
          <CharString index="11">
            116 67 rlineto
            return
          </CharString>
          <CharString index="12">
            515 -18 callsubr
            -605 -325 605 -100 -638 vlineto
            -104 callsubr
            293 -97 callsubr
            638 vlineto
            return
          </CharString>
          <CharString index="13">
            rmoveto
            101 138 14 callsubr
            -81 -80 -80 80 14 callsubr
            100 15 callsubr
            endchar
          </CharString>
          <CharString index="14">
            190 -88 callsubr
            -399 -700 399 90 -299 hlineto
            return
          </CharString>
          <CharString index="15">
            hlineto
            -91 callgsubr
            return
          </CharString>
          <CharString index="16">
            rlineto
            98 hlineto
            59 166 rlineto
            310 hlineto
            59 -166 rlineto
            98 hlineto
            return
          </CharString>
          <CharString index="17">
            94 55 rlineto
            94 -68 -82 -2 vlineto
            -142 82 return
          </CharString>
          <CharString index="18">
            -77 callsubr
            82 -47 rlineto
            121 hlineto
            -128 198 -53 callsubr
          </CharString>
          <CharString index="19">
            315 rmoveto
            239 90 -239 205 299 90 return
          </CharString>
          <CharString index="20">
            42 5 callsubr
            308 rlineto
            42 -150 vlineto
            return
          </CharString>
          <CharString index="21">
            126 -200 rmoveto
            95 hlineto
            278 700 rlineto
            -97 hlineto
            -141 -356 -43 callsubr
            -142 356 rlineto
            -97 hlineto
            193 -477 rlineto
            return
          </CharString>
          <CharString index="22">
            576 vlineto
            -103 callsubr
            return
          </CharString>
          <CharString index="23">
            -71 callgsubr
            228 -98 callgsubr
            return
          </CharString>
          <CharString index="24">
            505 438 rmoveto
            -103 callsubr
            -141 -68 callsubr
            231 -418 97 hlineto
            return
          </CharString>
          <CharString index="25">
            105 105 -105 hlineto
            return
          </CharString>
          <CharString index="26">
            107 rmoveto
            -183 144 rlineto
            1 vlineto
            183 143 rlineto
            107 vlineto
            -250 -200 rlineto
            -102 vlineto
            250 -200 rlineto
            return
          </CharString>
          <CharString index="27">
            177 -66 callgsubr
            return
          </CharString>
          <CharString index="28">
            250 200 rlineto
            102 vlineto
            -250 200 rlineto
            -107 vlineto
            183 -143 rlineto
            -1 vlineto
            -183 -144 rlineto
            return
          </CharString>
          <CharString index="29">
            -11 callsubr
            vstem
            425 424 -89 callgsubr
            return
          </CharString>
          <CharString index="30">
            rmoveto
            169 vlineto
            -82 47 rlineto
            -121 hlineto
            -82 -47 rlineto
            -169 vlineto
            return
          </CharString>
          <CharString index="31">
            rmoveto
            -82 callsubr
            return
          </CharString>
          <CharString index="32">
            -68 -67 callsubr
            208 -20 -90 callgsubr
            return
          </CharString>
          <CharString index="33">
            hstem
            90 100 return
          </CharString>
          <CharString index="34">
            rmoveto
            201 -115 -201 hlineto
            return
          </CharString>
          <CharString index="35">
            hstem
            80 97 return
          </CharString>
          <CharString index="36">
            21 -36 callgsubr
            340 -81 callsubr
            return
          </CharString>
          <CharString index="37">
            -72 callsubr
            -69 callgsubr
            return
          </CharString>
          <CharString index="38">
            rmoveto
            34 hlineto
            86 246 rlineto
            34 -120 vlineto
            endchar
          </CharString>
          <CharString index="39">
            hlineto
            -63 callsubr
            -505 97 418 return
          </CharString>
          <CharString index="40">
            0 90 225 -30 callgsubr
            return
          </CharString>
          <CharString index="41">
            -20 -72 callsubr
            241 97 vstem
            177 hmoveto
            418 241 -418 97 438 -7 callgsubr
            return
          </CharString>
          <CharString index="42">
            -85 callgsubr
            240 -350 -85 callgsubr
            endchar
          </CharString>
          <CharString index="43">
            -90 100 113 hlineto
            -103 callsubr
            return
          </CharString>
          <CharString index="44">
            -71 -41 -24 41 rlineto
            -73 return
          </CharString>
          <CharString index="45">
            71 41 71 -41 rlineto
            return
          </CharString>
          <CharString index="46">
            87 336 87 return
          </CharString>
          <CharString index="47">
            -38 callgsubr
            rlineto
            hintmask 11101100
            -97 callgsubr
          </CharString>
          <CharString index="48">
            -120 -87 101 -97 callsubr
            endchar
          </CharString>
          <CharString index="49">
            -257 -179 -45 callgsubr
            100 -200 -85 callgsubr
            endchar
          </CharString>
          <CharString index="50">
            40 -29 callsubr
            92 -46 callgsubr
            return
          </CharString>
          <CharString index="51">
            21 -52 callgsubr
            return
          </CharString>
          <CharString index="52">
            -20 -74 callsubr
            return
          </CharString>
          <CharString index="53">
            -19 callsubr
            endchar
          </CharString>
          <CharString index="54">
            rmoveto
            135 -133 -135 hlineto
            endchar
          </CharString>
          <CharString index="55">
            rmoveto
            -42 hlineto
            -108 -308 rlineto
            -42 150 vlineto
            return
          </CharString>
          <CharString index="56">
            -10 callsubr
            hlineto
            return
          </CharString>
          <CharString index="57">
            87 123 87 return
          </CharString>
          <CharString index="58">
            143 332 87 -313 4 callgsubr
            516 hmoveto
            -97 return
          </CharString>
          <CharString index="59">
            hlineto
            -103 callgsubr
            -163 -92 return
          </CharString>
          <CharString index="60">
            -55 callsubr
            325 100 vstem
            return
          </CharString>
          <CharString index="61">
            0 -45 callsubr
            return
          </CharString>
          <CharString index="62">
            87 326 87 return
          </CharString>
          <CharString index="63">
            -3 callgsubr
            hintmask 11111010
            -103 callgsubr
            -163 vlineto
            return
          </CharString>
          <CharString index="64">
            rlineto
            -2 hlineto
            return
          </CharString>
          <CharString index="65">
            -80 callsubr
            hlineto
            -102 623 -6 callgsubr
            return
          </CharString>
          <CharString index="66">
            -219 vlineto
            -104 callsubr
            113 hlineto
            return
          </CharString>
          <CharString index="67">
            -141 82 rlineto
            -103 hlineto
            -103 callgsubr
            return
          </CharString>
          <CharString index="68">
            -21 700 -20 return
          </CharString>
          <CharString index="69">
            hlineto
            144 return
          </CharString>
          <CharString index="70">
            -327 -61 callgsubr
            return
          </CharString>
          <CharString index="71">
            21 -21 418 87 return
          </CharString>
          <CharString index="72">
            rmoveto
            -97 -613 -23 callgsubr
            -87 101 -97 callsubr
            return
          </CharString>
          <CharString index="73">
            -12 -62 callgsubr
            225 -20 -72 callsubr
            241 97 vstem
            return
          </CharString>
          <CharString index="74">
            -120 140 hlineto
            -97 -56 rlineto
            -84 return
          </CharString>
          <CharString index="75">
            vlineto
            -87 50 rlineto
            2 vlineto
            87 50 rlineto
            return
          </CharString>
          <CharString index="76">
            -199 10 rlineto
            -85 vlineto
            199 10 return
          </CharString>
          <CharString index="77">
            rlineto
            89 -65 -99 -50 70 hlineto
            86 50 rlineto
            74 vlineto
            -66 38 rlineto
            return
          </CharString>
          <CharString index="78">
            413 rmoveto
            return
          </CharString>
          <CharString index="79">
            65 133 65 -24 callgsubr
            407 return
          </CharString>
          <CharString index="80">
            218 87 hstem
            70 218 rmoveto
            return
          </CharString>
          <CharString index="81">
            90 -74 callsubr
            275 100 vstem
            return
          </CharString>
          <CharString index="82">
            0 -50 callsubr
            116 87 return
          </CharString>
          <CharString index="83">
            hintmask 11101000
            120 87 return
          </CharString>
          <CharString index="84">
            -22 -5 87 418 -20 return
          </CharString>
          <CharString index="85">
            -21 callgsubr
            vstem
            return
          </CharString>
          <CharString index="86">
            68 170 68 return
          </CharString>
          <CharString index="87">
            90 530 90 return
          </CharString>
          <CharString index="88">
            rlineto
            80 hlineto
            return
          </CharString>
          <CharString index="89">
            700 rmoveto
            return
          </CharString>
          <CharString index="90">
            -120 643 -318 hlineto
            -103 callgsubr
            -163 return
          </CharString>
          <CharString index="91">
            -51 callgsubr
            endchar
          </CharString>
          <CharString index="92">
            vstem
            90 hmoveto
            359 90 -259 610 -100 hlineto
            return
          </CharString>
          <CharString index="93">
            336 -73 callsubr
            endchar
          </CharString>
          <CharString index="94">
            rmoveto
            325 -520 -325 return
          </CharString>
          <CharString index="95">
            97 -97 217 return
          </CharString>
          <CharString index="96">
            91 163 91 return
          </CharString>
          <CharString index="97">
            rlineto
            -112 return
          </CharString>
          <CharString index="98">
            -103 callsubr
            -233 hlineto
            -103 callgsubr
            return
          </CharString>
          <CharString index="99">
            105 hstem
            110 10 callsubr
            110 return
          </CharString>
          <CharString index="100">
            hlineto
            17 184 rlineto
            -83 hlineto
            -17 -184 rlineto
            return
          </CharString>
          <CharString index="101">
            -21 138 -20 hstem
            return
          </CharString>
          <CharString index="102">
            -74 callsubr
            265 100 vstem
            90 hmoveto
            100 return
          </CharString>
          <CharString index="103">
            2 callsubr
            hstem
            80 -11 callsubr
            return
          </CharString>
          <CharString index="104">
            -295 530 295 -90 100 113 return
          </CharString>
          <CharString index="105">
            rmoveto
            -241 336 241 hlineto
            endchar
          </CharString>
          <CharString index="106">
            rmoveto
            120 120 -120 hlineto
            endchar
          </CharString>
          <CharString index="107">
            -61 callgsubr
            hstem
            return
          </CharString>
          <CharString index="108">
            -200 87 613 -20 return
          </CharString>
          <CharString index="109">
            81 191 81 return
          </CharString>
          <CharString index="110">
            279 hlineto
            return
          </CharString>
          <CharString index="111">
            75 217 -20 hstem
            254 75 vstem
            return
          </CharString>
          <CharString index="112">
            hlineto
            108 return
          </CharString>
          <CharString index="113">
            102 -87 vlineto
            hintmask 10101100
            -82 -95 vlineto
            return
          </CharString>
          <CharString index="114">
            -120 643 -97 -663 hlineto
            return
          </CharString>
          <CharString index="115">
            0 callsubr
            90 100 return
          </CharString>
          <CharString index="116">
            rlineto
            -168 hlineto
            -103 callgsubr
            return
          </CharString>
          <CharString index="117">
            -50 callgsubr
            vstem
            return
          </CharString>
          <CharString index="118">
            21 -21 413 87 return
          </CharString>
          <CharString index="119">
            100 vstem
            190 return
          </CharString>
          <CharString index="120">
            57 21 -21 return
          </CharString>
          <CharString index="121">
            rlineto
            -75 hlineto
            return
          </CharString>
          <CharString index="122">
            -138 rlineto
            return
          </CharString>
        <CharString name=".notdef">
          -347 endchar
        </CharString>
        <CharString name="A">
          57 21 -21 166 90 444 -98 callgsubr
          endchar
        </CharString>
        <CharString name="AE">
          361 0 90 76 90 59 -30 callgsubr
          hstem
          519 100 vstem
          619 -88 callsubr
          -448 hlineto
          -490 -700 rlineto
          118 hlineto
          115 166 rlineto
          306 -166 399 90 -299 hlineto
          -102 511 rmoveto
          2 -345 -243 hlineto
          endchar
        </CharString>
        <CharString name="Aacute">
          -84 callsubr
          36 524 -102 callsubr
        </CharString>
        <CharString name="Acircumflex">
          -71 callgsubr
          238 -98 callgsubr
          68 662 -107 callsubr
        </CharString>
        <CharString name="Adieresis">
          -71 callgsubr
          105 105 hstem
          170 10 callsubr
          -107 callgsubr
          -39 529 -99 callgsubr
        </CharString>
        <CharString name="Agrave">
          -84 callsubr
          109 652 -95 callgsubr
        </CharString>
        <CharString name="Aring">
          -71 callgsubr
          153 65 hstem
          190 75 135 75 vstem
          475 682 -77 callsubr
          61 -35 -231 -647 -91 callsubr
          -231 646 rlineto
          -82 -45 -82 callgsubr
          56 577 -53 callsubr
        </CharString>
        <CharString name="Atilde">
          -71 callgsubr
          244 -20 hstem
          179 -21 callsubr
          vstem
          -107 callgsubr
          40 601 -94 callgsubr
        </CharString>
        <CharString name="B">
          48 0 90 227 90 203 -26 callsubr
          565 -29 callsubr
          220 vlineto
          -103 callsubr
          -359 -700 359 -97 callsubr
          244 vlineto
          -87 50 rlineto
          2 vlineto
          -288 -46 rmoveto
          275 -227 -275 hlineto
          520 vmoveto
          275 -203 -275 hlineto
          endchar
        </CharString>
        <CharString name="C">
          5 callgsubr
          295 100 vstem
          485 175 rmoveto
          -90 -3 callsubr
          vlineto
          -103 callsubr
          -263 hlineto
          -103 callgsubr
          -576 vlineto
          -104 callsubr
          263 -97 callsubr
          113 vlineto
          endchar
        </CharString>
        <CharString name="Ccedilla">
          58 -199 50 65 169 -90 90 530 2 callgsubr
          163 57 75 100 hintmask 11011110
          485 175 rmoveto
          -90 -3 callsubr
          vlineto
          -103 callsubr
          -263 hlineto
          -103 callgsubr
          -576 vlineto
          hintmask 10111110
          -104 callsubr
          103 hlineto
          hintmask 11011110
          -45 -79 -30 callsubr
          hintmask 10111110
          19 32 rlineto
          106 -97 callsubr
          113 vlineto
          endchar
        </CharString>
        <CharString name="D">
          98 0 90 520 90 -74 callsubr
          325 100 vstem
          615 67 rmoveto
          566 vlineto
          -103 callsubr
          -409 -700 409 hlineto
          -309 610 -13 callsubr
          hlineto
          endchar
        </CharString>
        <CharString name="E">
          -68 -67 callsubr
          -90 callgsubr
          endchar
        </CharString>
        <CharString name="Eacute">
          -75 callsubr
          35 690 -102 callsubr
        </CharString>
        <CharString name="Ecircumflex">
          -68 -67 callsubr
          218 -20 -90 callgsubr
          46 828 -107 callsubr
        </CharString>
        <CharString name="Edieresis">
          -68 -67 callsubr
          85 105 -15 callgsubr
          -60 -50 callgsubr
          hintmask 11111010
          -93 callsubr
          hintmask 11110110
          -60 695 -99 callgsubr
        </CharString>
        <CharString name="Egrave">
          -75 callsubr
          65 818 -95 callgsubr
        </CharString>
        <CharString name="Eth">
          98 0 90 201 74 245 90 -74 callsubr
          325 100 vstem
          20 291 rmoveto
          70 -291 409 -97 callsubr
          566 vlineto
          -103 callsubr
          -409 -335 -70 hlineto
          170 245 -13 callsubr
          201 106 74 -106 hlineto
          endchar
        </CharString>
        <CharString name="Euro">
          67 -5 90 154 74 74 74 154 90 hstem
          107 100 287 100 vstem
          458 461 rmoveto
          -251 154 287 -64 callsubr
          -255 hlineto
          -103 callgsubr
          -177 -77 -74 77 -74 -77 -74 77 -177 vlineto
          -104 callsubr
          255 -97 callsubr
          113 -100 -90 -287 154 123 vlineto
          43 74 rlineto
          -166 74 208 hlineto
          endchar
        </CharString>
        <CharString name="F">
          -78 21 -21 315 -30 callgsubr
          hstem
          90 12 callsubr
          315 rmoveto
          249 90 -249 205 309 90 -409 -700 100 hlineto
          endchar
        </CharString>
        <CharString name="G">
          68 -5 90 175 90 265 2 callgsubr
          180 215 -100 100 hintmask 11111000
          370 260 rmoveto
          hintmask 11110100
          115 -175 -3 callsubr
          hlineto
          -116 67 rlineto
          -263 hlineto
          -103 callgsubr
          -576 vlineto
          -104 callsubr
          263 -97 callsubr
          288 vlineto
          hintmask 11111000
          -215 hlineto
          endchar
        </CharString>
        <CharString name="H">
          108 21 -21 315 90 295 -55 callsubr
          335 12 callsubr
          315 rmoveto
          335 -315 100 700 -100 -295 -335 295 -100 -700 100 hlineto
          endchar
        </CharString>
        <CharString name="I">
          -327 21 -21 700 -67 callgsubr
          endchar
        </CharString>
        <CharString name="IJ">
          208 -5 90 -64 -39 callsubr
          -15 callgsubr
          110 100 225 100 hintmask 01111100
          -58 callgsubr
          hintmask 10111100
          535 -615 -57 callgsubr
        </CharString>
        <CharString name="Iacute">
          -49 callgsubr
          -25 80 -102 callsubr
        </CharString>
        <CharString name="Icircumflex">
          -37 callsubr
          238 -67 callgsubr
          -5 218 -107 callsubr
        </CharString>
        <CharString name="Idieresis">
          -37 callsubr
          105 105 hstem
          -22 105 7 100 7 105 cntrmask 00011100
          -58 callgsubr
          -112 85 -99 callgsubr
        </CharString>
        <CharString name="Igrave">
          -49 callgsubr
          31 208 -95 callgsubr
        </CharString>
        <CharString name="Itilde">
          -327 -113 200 73 196 endchar
        </CharString>
        <CharString name="J">
          -72 -5 90 615 -20 hstem
          20 100 225 100 vstem
          345 85 -57 callgsubr
        </CharString>
        <CharString name="Jcircumflex">
          -72 130 200 74 195 endchar
        </CharString>
        <CharString name="K">
          56 8 callsubr
          vstem
          90 hmoveto
          100 188 hlineto
          95 113 246 -301 rlineto
          122 hlineto
          -307 373 275 327 rlineto
          -120 hlineto
          -309 -370 rlineto
          -2 370 -100 hlineto
          endchar
        </CharString>
        <CharString name="L">
          -128 12 callgsubr
          hstem
          90 100 -15 callsubr
          endchar
        </CharString>
        <CharString name="Ldotaccent">
          -128 0 90 142 120 348 -55 callsubr
          94 120 -15 callsubr
          194 -468 -1 callsubr
        </CharString>
        <CharString name="Lslash">
          -128 12 callgsubr
          hstemhm
          20 170 -100 100 -100 206 6 callgsubr
          70 15 rlineto
          -306 359 90 -259 238 vlineto
          hintmask 11001000
          106 23 rlineto
          74 vlineto
          hintmask 11100000
          -106 -23 rlineto
          298 vlineto
          hintmask 11010000
          -100 -320 hlineto
          hintmask 11100000
          -70 -15 rlineto
          endchar
        </CharString>
        <CharString name="M">
          278 0 callsubr
          90 95 515 95 vstem
          700 hmoveto
          95 700 -141 hlineto
          -211 -584 -43 callsubr
          -210 584 rlineto
          -141 -700 95 570 2 hlineto
          205 -570 rlineto
          100 hlineto
          206 570 rlineto
          2 hlineto
          endchar
        </CharString>
        <CharString name="N">
          128 8 callsubr
          355 -68 callgsubr
          endchar
        </CharString>
        <CharString name="Nacute">
          128 125 200 78 194 endchar
        </CharString>
        <CharString name="Ntilde">
          128 -61 callgsubr
          244 -55 callsubr
          16 -21 callsubr
          33 -68 callgsubr
          86 857 -94 callgsubr
        </CharString>
        <CharString name="O">
          98 -55 callgsubr
          -100 callgsubr
          endchar
        </CharString>
        <CharString name="OE">
          357 -67 callsubr
          -74 callsubr
          325 100 vstem
          615 -88 callsubr
          -708 hlineto
          -103 callgsubr
          -566 vlineto
          -104 callsubr
          708 90 -299 hlineto
          -425 520 -13 callsubr
          hlineto
          endchar
        </CharString>
        <CharString name="Oacute">
          -83 callgsubr
          88 695 -102 callsubr
        </CharString>
        <CharString name="Ocircumflex">
          98 -55 callgsubr
          213 -20 -100 callgsubr
          107 833 -107 callsubr
        </CharString>
        <CharString name="Odieresis">
          98 -55 callgsubr
          80 105 -15 callgsubr
          6 -50 callgsubr
          -5 100 hintmask 11111010
          -105 callgsubr
          6 700 -76 callsubr
          hintmask 11111100
          -92 callgsubr
        </CharString>
        <CharString name="Ograve">
          -83 callgsubr
          135 823 -95 callgsubr
        </CharString>
        <CharString name="Oslash">
          98 -55 callgsubr
          -74 callsubr
          325 100 vstem
          -105 callsubr
          285 hlineto
          -285 -465 rlineto
          40 -65 rmoveto
          285 465 rlineto
          -465 vlineto
          endchar
        </CharString>
        <CharString name="Otilde">
          98 -55 callgsubr
          219 -55 callsubr
          10 -21 callsubr
          9 100 vstem
          -105 callgsubr
          80 772 -94 callgsubr
        </CharString>
        <CharString name="P">
          18 21 -21 269 90 251 90 -5 callsubr
          269 249 -97 callsubr
          297 vlineto
          -103 callsubr
          -349 hlineto
          100 -90 -1 callgsubr
        </CharString>
        <CharString name="Q">
          98 -9 callgsubr
          195 -20 callsubr
          -74 callsubr
          325 12 callsubr
          615 rmoveto
          325 -530 14 callgsubr
          201 -90 rmoveto
          110 -195 rlineto
          111 hlineto
          -113 195 -96 callsubr
          -100 callsubr
          endchar
        </CharString>
        <CharString name="R">
          48 21 -21 279 90 241 -81 callgsubr
          endchar
        </CharString>
        <CharString name="Racute">
          48 30 200 82 194 endchar
        </CharString>
        <CharString name="Rcaron">
          48 62 200 82 207 endchar
        </CharString>
        <CharString name="Rcommaaccent">
          48 -314 -21 356 -21 279 90 0 241 0 -81 callgsubr
          82 -704 -69 callsubr
        </CharString>
        <CharString name="S">
          38 -5 -13 callgsubr
          -74 callsubr
          265 100 vstem
          90 370 rmoveto
          -27 callgsubr
          -104 callsubr
          243 -97 callsubr
          274 vlineto
          -103 callsubr
          -249 212 265 -80 100 103 hlineto
          -9 callsubr
          endchar
        </CharString>
        <CharString name="Scaron">
          38 -5 -13 callgsubr
          213 -55 callsubr
          265 100 vstem
          90 370 rmoveto
          -27 callgsubr
          -104 callsubr
          243 -97 callsubr
          274 vlineto
          -103 callsubr
          -249 212 265 -80 100 103 hlineto
          -9 callsubr
          290 142 -94 callsubr
        </CharString>
        <CharString name="T">
          -49 21 -21 610 90 hstem
          229 100 vstem
          329 610 rmoveto
          199 90 -498 -90 199 -610 100 hlineto
          endchar
        </CharString>
        <CharString name="Thorn">
          28 21 -21 156 90 251 90 143 -20 -5 callsubr
          156 249 -97 callsubr
          297 vlineto
          -103 callsubr
          -249 143 -100 hlineto
          100 -233 -1 callgsubr
        </CharString>
        <CharString name="U">
          98 -5 100 605 -47 callsubr
          -95 callsubr
          endchar
        </CharString>
        <CharString name="Uacute">
          -77 callgsubr
          -320 80 -102 callsubr
        </CharString>
        <CharString name="Ucircumflex">
          -22 callgsubr
          238 -47 callsubr
          -95 callsubr
          -318 218 -107 callsubr
        </CharString>
        <CharString name="Udieresis">
          -22 callgsubr
          105 105 -15 callgsubr
          0 -50 callgsubr
          1 100 hintmask 11110110
          -95 callsubr
          -425 85 rmoveto
          hintmask 11101110
          -99 callsubr
        </CharString>
        <CharString name="Ugrave">
          -77 callgsubr
          -310 208 -95 callgsubr
        </CharString>
        <CharString name="V">
          57 0 callsubr
          644 -18 callsubr
          -101 hlineto
          -210 -597 -43 callsubr
          -210 597 rlineto
          -101 hlineto
          250 -700 rlineto
          124 hlineto
          endchar
        </CharString>
        <CharString name="W">
          349 0 callsubr
          926 -18 callsubr
          -97 hlineto
          -143 -572 -43 callsubr
          -150 572 -51 callsubr
          -151 -572 -43 callsubr
          -142 572 rlineto
          -97 hlineto
          180 -700 rlineto
          119 hlineto
          148 561 rlineto
          2 hlineto
          148 -561 rlineto
          119 hlineto
          endchar
        </CharString>
        <CharString name="X">
          44 0 callsubr
          30 hmoveto
          112 hlineto
          183 275 184 -275 rlineto
          112 hlineto
          -241 357 231 343 -51 callsubr
          -174 -260 -173 260 -51 callsubr
          230 -343 rlineto
          endchar
        </CharString>
        <CharString name="Y">
          4 21 -21 700 -74 callgsubr
          endchar
        </CharString>
        <CharString name="Yacute">
          4 -61 callgsubr
          228 -74 callgsubr
          471 vmoveto
          -101 callgsubr
        </CharString>
        <CharString name="Ydieresis">
          4 -61 callgsubr
          105 105 hstem
          143 105 7 100 7 105 cntrmask 00011100
          -88 callgsubr
          -112 476 -99 callgsubr
        </CharString>
        <CharString name="Z">
          -22 0 90 520 90 -65 callgsubr
          endchar
        </CharString>
        <CharString name="Zcaron">
          -22 0 90 520 90 218 -20 -65 callgsubr
          274 80 -94 callsubr
        </CharString>
        <CharString name="a">
          -76 callgsubr
          hstem
          60 -22 callsubr
          -104 callgsubr
          endchar
        </CharString>
        <CharString name="a.alt">
          -32 -62 callgsubr
          -72 callsubr
          221 97 vstem
          177 418 rmoveto
          221 -336 -221 hlineto
          318 423 rmoveto
          -26 hlineto
          10 callgsubr
          -131 -92 callsubr
          131 hlineto
          -62 callsubr
          26 hlineto
          endchar
        </CharString>
        <CharString name="aacute">
          -76 callgsubr
          218 -20 hstem
          60 -22 callsubr
          -104 callgsubr
          125 528 -102 callsubr
        </CharString>
        <CharString name="acircumflex">
          -76 callgsubr
          -11 callgsubr
          60 -22 callsubr
          -104 callgsubr
          150 666 -107 callsubr
        </CharString>
        <CharString name="acute">
          -107 611 -5 callgsubr
          185 590 -102 callsubr
        </CharString>
        <CharString name="acute.cap">
          -107 811 -5 callgsubr
          185 790 -102 callsubr
        </CharString>
        <CharString name="adieresis">
          -76 callgsubr
          95 105 hstemhm
          60 97 -47 -50 callgsubr
          -76 97 hintmask 11111001
          157 205 -102 callgsubr
          hintmask 11110101
          -44 callsubr
          hintmask 11110110
          50 533 -99 callgsubr
        </CharString>
        <CharString name="ae">
          226 0 87 -71 -21 221 87 110 87 5 -20 hstemhm
          60 97 201 -21 callgsubr
          cntrmask 00000111
          hintmask 10101111
          753 -42 callgsubr
          -72 -42 rlineto
          hintmask 01110111
          -63 37 rlineto
          -3 callgsubr
          -103 callgsubr
          -163 vlineto
          -104 callsubr
          111 hlineto
          97 57 rlineto
          hintmask 10110111
          90 -52 rlineto
          3 callsubr
          -596 205 -78 callgsubr
          298 -14 callsubr
        </CharString>
        <CharString name="agrave">
          -76 callgsubr
          218 -20 hstem
          60 -22 callsubr
          -104 callgsubr
          205 656 -95 callgsubr
        </CharString>
        <CharString name="ampersand">
          48 -5 90 232 90 208 2 callgsubr
          221 100 -60 100 -100 174 hintmask 11110010
          625 407 rmoveto
          -58 hlineto
          -103 callgsubr
          -255 -261 232 175 90 -175 208 vlineto
          hintmask 11111000
          221 -64 callsubr
          -189 hlineto
          -103 callgsubr
          -225 0 callgsubr
          -87 -50 rlineto
          -249 vlineto
          -104 callsubr
          229 hlineto
          hintmask 11110100
          -96 callsubr
          255 vlineto
          hintmask 11110010
          74 hlineto
          endchar
        </CharString>
        <CharString name="apple">
          251 -2 -21 834 -20 hstem
          436 588 rmoveto
          -11 -23 5 10 -35 hvcurveto
          10 -35 -29 5 -24 hhcurveto
          -57 -48 -24 -48 -38 hvcurveto
          -37 -48 -19 -62 -77 vvcurveto
          -83 25 -84 49 -85 vhcurveto
          -87 49 50 -43 51 hhcurveto
          17 22 6 11 27 hvcurveto
          11 27 24 6 21 hhcurveto
          21 25 -5 -11 29 hvcurveto
          -11 30 23 -5 17 hhcurveto
          43 43 33 65 43 hvcurveto
          29 43 20 42 13 40 -30 9 -27 21 -23 33 rrcurveto
          -23 33 -11 38 41 vvcurveto
          38 11 34 22 31 vhcurveto
          12 17 19 20 26 23 -17 21 -18 16 -17 13 rrcurveto
          21 -31 -36 11 -40 hhcurveto
          -25 -29 -6 -11 -33 hvcurveto
          -11 -33 -24 -6 -15 hhcurveto
          153 202 rmoveto
          5 0 7 -3 9 vhcurveto
          -116 -27 -47 -77 -1 -99 23 2 18 3 11 3 18 6 18 12 18 18 rrcurveto
          43 43 18 52 43 vvcurveto
          endchar
        </CharString>
        <CharString name="approxequal">
          115 51 87 -5 87 69 87 -5 87 hstemhm
          90 87 368 87 hintmask 10011100
          272 371 rmoveto
          hintmask 10101100
          141 -82 rlineto
          103 -97 callsubr
          hintmask 10011100
          6 callsubr
          hintmask 10011100
          -40 callsubr
          hintmask 10101100
          -102 87 vlineto
          hintmask 01011100
          82 vlineto
          95 -238 rmoveto
          hintmask 10101100
          141 -82 rlineto
          103 -97 callsubr
          hintmask 01101100
          6 callsubr
          hintmask 01101100
          -40 callsubr
          hintmask 10101100
          -102 87 vlineto
          hintmask 01101100
          82 vlineto
          endchar
        </CharString>
        <CharString name="aring">
          -76 callgsubr
          70 65 133 65 hstemhm
          60 97 -35 75 135 75 -49 97 hintmask 1111110010000000
          -104 callgsubr
          hintmask 1111101100000000
          347 555 -89 callsubr
        </CharString>
        <CharString name="asciicircum">
          -5 401 -21 320 -20 hstem
          157 380 rmoveto
          144 233 rlineto
          1 hlineto
          143 -233 rlineto
          107 hlineto
          -200 320 rlineto
          -102 hlineto
          -200 -320 rlineto
          endchar
        </CharString>
        <CharString name="asciitilde">
          75 188 87 -5 87 hstemhm
          70 87 368 87 hintmask 01110000
          252 270 rmoveto
          hintmask 10110000
          141 -82 rlineto
          103 -97 callsubr
          hintmask 01110000
          102 -87 vlineto
          hintmask 10110000
          -82 -95 vlineto
          hintmask 01110000
          -40 callsubr
          hintmask 10110000
          -102 87 vlineto
          hintmask 01110000
          82 vlineto
          endchar
        </CharString>
        <CharString name="asterisk">
          23 285 -21 446 -20 hstem
          276 78 vstem
          281 524 rmoveto
          -173 67 -28 -83 179 -48 -116 -143 71 -53 101 154 101 -154 71 53 -116 143 179 48 -28 83 -173 -67 10 186 rlineto
          -88 hlineto
          endchar
        </CharString>
        <CharString name="at">
          403 -141 80 98 -45 callsubr
          88 80 hstem
          90 90 650 90 vstem
          804 -141 rmoveto
          80 -624 686 650 -508 -160 vlineto
          44 420 rlineto
          -26 hlineto
          -76 -41 -66 41 rlineto
          -101 hlineto
          -123 -67 -39 -366 109 -67 rlineto
          101 hlineto
          76 41 66 -41 rlineto
          169 -97 callsubr
          534 vlineto
          -103 callsubr
          -598 hlineto
          -103 callgsubr
          -712 vlineto
          -104 callsubr
          211 591 rmoveto
          191 hlineto
          -35 -326 rlineto
          -191 hlineto
          endchar
        </CharString>
        <CharString name="atilde">
          -76 callgsubr
          234 -20 hstemhm
          60 97 -47 68 180 58 -58 97 hintmask 11111010
          157 205 -96 callgsubr
          hintmask 11110101
          26 438 hlineto
          -103 callsubr
          -44 callsubr
          120 605 -38 callgsubr
          -90 callsubr
          rlineto
          hintmask 11110110
          -79 callgsubr
        </CharString>
        <CharString name="b">
          -34 callsubr
          248 505 rmoveto
          -71 -41 rlineto
          266 -97 -735 26 vlineto
          -62 callsubr
          151 -97 callsubr
          376 vlineto
          -103 callsubr
          -222 -87 rmoveto
          -29 callgsubr
        </CharString>
        <CharString name="backslash">
          9 callgsubr
          120 720 rmoveto
          -90 hlineto
          236 -740 rlineto
          90 hlineto
          endchar
        </CharString>
        <CharString name="bar">
          -43 callgsubr
          930 -90 hlineto
          endchar
        </CharString>
        <CharString name="braceleft">
          -28 callgsubr
          205 225 rmoveto
          -67 39 rlineto
          2 vlineto
          67 39 rlineto
          355 133 70 -97 vlineto
          -103 callgsubr
          -363 -85 -70 85 -363 vlineto
          -104 callsubr
          97 70 -133 hlineto
          endchar
        </CharString>
        <CharString name="braceright">
          -28 callgsubr
          193 -130 rmoveto
          -133 -70 97 -97 callsubr
          363 85 70 -85 363 vlineto
          -103 callsubr
          -97 -70 133 -355 hlineto
          67 -39 rlineto
          -2 vlineto
          -67 -39 rlineto
          endchar
        </CharString>
        <CharString name="bracketleft">
          -48 callgsubr
          hstemhm
          90 80 -80 213 hintmask 11100000
          170 660 rmoveto
          hintmask 11010000
          133 70 -213 -930 213 70 hlineto
          hintmask 11100000
          -133 hlineto
          endchar
        </CharString>
        <CharString name="bracketright">
          -48 callgsubr
          hstemhm
          60 213 -80 80 hintmask 11010000
          193 -130 rmoveto
          hintmask 11100000
          -133 -70 213 930 -213 -70 hlineto
          hintmask 11010000
          133 hlineto
          endchar
        </CharString>
        <CharString name="breve">
          -78 580 65 91 -20 -24 callgsubr
          332 736 rmoveto
          -91 -135 91 -75 -109 vlineto
          82 -47 rlineto
          121 hlineto
          82 47 rlineto
          109 vlineto
          endchar
        </CharString>
        <CharString name="brokenbar">
          -43 callgsubr
          402 -90 hlineto
          126 vmoveto
          90 402 -90 hlineto
          endchar
        </CharString>
        <CharString name="bullet">
          -27 178 -21 380 -20 hstem
          480 224 rmoveto
          246 vlineto
          -103 callsubr
          -148 hlineto
          -103 callgsubr
          -246 vlineto
          -104 callsubr
          148 hlineto
          endchar
        </CharString>
        <CharString name="c">
          -92 -46 callsubr
          -72 callsubr
          vstem
          177 -29 callsubr
          278 87 -259 hlineto
          -103 callgsubr
          -366 vlineto
          -104 callsubr
          259 87 -278 hlineto
          endchar
        </CharString>
        <CharString name="caron">
          -76 611 -6 callsubr
          320 590 -94 callsubr
        </CharString>
        <CharString name="caron.cap">
          -76 811 -6 callsubr
          320 790 -94 callsubr
        </CharString>
        <CharString name="ccedilla">
          -92 -199 50 65 171 -87 -45 callsubr
          -35 callgsubr
          133 57 hintmask 10111100
          269 hmoveto
          hintmask 11011100
          -48 -84 -30 callsubr
          hintmask 10111100
          22 37 rlineto
          132 7 callgsubr
          -259 hlineto
          -103 callgsubr
          -366 vlineto
          -104 callsubr
          endchar
        </CharString>
        <CharString name="cedilla">
          -29 -199 50 0 65 84 -20 hstemhm
          310 57 hintmask 01110000
          269 hmoveto
          -48 -84 rlineto
          89 -65 -99 hlineto
          hintmask 10110000
          -50 70 vlineto
          86 50 rlineto
          74 vlineto
          -66 38 22 37 rlineto
          endchar
        </CharString>
        <CharString name="cent">
          -92 -118 205 -87 -45 callsubr
          -87 205 -35 callgsubr
          90 96 hintmask 10101100
          363 500 rmoveto
          hintmask 10011100
          118 -96 vlineto
          hintmask 01101100
          -118 -71 vlineto
          -103 callgsubr
          -366 vlineto
          -104 callsubr
          71 hlineto
          hintmask 10101100
          -118 96 vlineto
          hintmask 01101100
          118 92 7 callgsubr
          vlineto
          endchar
        </CharString>
        <CharString name="circumflex">
          -76 611 -6 callsubr
          210 728 -107 callsubr
        </CharString>
        <CharString name="circumflex.cap">
          -76 811 -6 callsubr
          210 928 -107 callsubr
        </CharString>
        <CharString name="colon">
          -257 0 150 200 -34 callgsubr
          200 vmoveto
          -84 callgsubr
          endchar
        </CharString>
        <CharString name="comma">
          -58 callsubr
        </CharString>
        <CharString name="commaaccent">
          -287 -314 -21 280 -20 hstem
          100 -335 -69 callsubr
        </CharString>
        <CharString name="copyright">
          233 -5 70 70 63 304 63 70 70 hstem
          90 80 83 69 195 69 84 80 vstem
          750 -32 callgsubr
          -428 hlineto
          -103 callgsubr
          -576 vlineto
          -104 callsubr
          428 hlineto
          -464 640 rmoveto
          500 -570 -500 hlineto
          347 186 rmoveto
          -53 -195 304 195 -53 69 74 vlineto
          -73 42 rlineto
          -186 hlineto
          -74 -42 rlineto
          -346 vlineto
          74 -42 rlineto
          186 hlineto
          73 42 rlineto
          74 vlineto
          endchar
        </CharString>
        <CharString name="ct">
          282 -46 callsubr
          140 -20 callgsubr
          415 -12 callsubr
          hintmask 11111000
          177 -29 callsubr
          415 -346 hlineto
          -104 callsubr
          hintmask 11110100
          13 callgsubr
          hintmask 11111000
          11 callgsubr
          hintmask 11110100
          120 87 hlineto
          hintmask 11111000
          -33 callsubr
          -396 vlineto
          -103 callgsubr
          -366 vlineto
          -104 callsubr
          259 87 -278 hlineto
          endchar
        </CharString>
        <CharString name="d">
          -34 callsubr
          196 505 rmoveto
          -91 callgsubr
          151 3 callgsubr
          24 -41 rlineto
          73 735 -97 -266 hlineto
          -71 41 rlineto
          71 -423 -2 callsubr
        </CharString>
        <CharString name="dagger">
          -24 -9 callgsubr
          639 4 callsubr
          324 444 rmoveto
          -59 callgsubr
          -10 -644 rlineto
          85 hlineto
          endchar
        </CharString>
        <CharString name="daggerdbl">
          -24 -9 callgsubr
          217 75 347 4 callsubr
          331 266 rmoveto
          -7 178 -59 callgsubr
          -7 -178 7 -179 -31 callsubr
          -10 -222 rlineto
          85 hlineto
          -10 222 -31 callgsubr
          rlineto
          endchar
        </CharString>
        <CharString name="degree">
          -102 357 81 191 81 hstem
          80 -78 callsubr
          endchar
        </CharString>
        <CharString name="dieresis">
          -63 595 -8 callsubr
          595 -99 callgsubr
        </CharString>
        <CharString name="dieresis.cap">
          -63 795 -8 callsubr
          795 -99 callgsubr
        </CharString>
        <CharString name="divide">
          -7 -10 130 83 94 83 130 hstem
          235 130 cntrmask 11100000
          -8 callgsubr
          -315 -213 rmoveto
          130 130 -130 hlineto
          260 vmoveto
          130 130 -130 hlineto
          endchar
        </CharString>
        <CharString name="dollar">
          38 -123 208 -90 -13 callgsubr
          -90 208 -15 callgsubr
          86 100 79 100 hintmask 10101111
          276 -123 rmoveto
          100 hlineto
          hintmask 01101111
          118 63 vlineto
          -96 callsubr
          274 vlineto
          -103 callsubr
          -249 212 265 -80 100 103 hlineto
          hintmask 10110111
          -103 callsubr
          -63 hlineto
          hintmask 10101111
          118 -100 vlineto
          hintmask 10110111
          -118 -70 vlineto
          -103 callgsubr
          -268 vlineto
          -27 callgsubr
          hintmask 01101111
          116 -67 -54 callsubr
        </CharString>
        <CharString name="dotaccent">
          -257 591 -47 callgsubr
          591 -72 callgsubr
          endchar
        </CharString>
        <CharString name="dotlessi">
          21 -21 500 -73 callgsubr
          hlineto
          endchar
        </CharString>
        <CharString name="dotlessj">
          1 callsubr
          hstemhm
          80 97 vstemhm
          177 -44 callgsubr
          -613 hlineto
          hintmask 11100000
          -59 callsubr
        </CharString>
        <CharString name="e">
          -64 callgsubr
          hstem
          80 -22 callsubr
          475 -42 callgsubr
          -103 callgsubr
          -371 vlineto
          -104 callsubr
          3 callsubr
          -298 418 -73 callsubr
          endchar
        </CharString>
        <CharString name="eacute">
          -87 callgsubr
          8 287 -102 callsubr
        </CharString>
        <CharString name="ecircumflex">
          -64 callgsubr
          223 -20 hstem
          80 -22 callsubr
          475 -42 callgsubr
          -103 callgsubr
          -371 vlineto
          -104 callsubr
          3 callsubr
          -298 418 -73 callsubr
          50 425 -107 callsubr
        </CharString>
        <CharString name="edieresis">
          -64 callgsubr
          90 105 -35 callgsubr
          -64 -50 callgsubr
          -59 97 hintmask 11111001
          475 -42 callgsubr
          -103 callgsubr
          -371 vlineto
          -104 callsubr
          3 callsubr
          -298 418 -73 callsubr
          hintmask 11110110
          -64 292 -99 callgsubr
        </CharString>
        <CharString name="egrave">
          -87 callgsubr
          108 415 -95 callgsubr
        </CharString>
        <CharString name="eight">
          38 -5 90 232 90 208 90 -74 callsubr
          265 12 callsubr
          85 rmoveto
          232 265 -232 vlineto
          -265 322 rmoveto
          208 265 -208 vlineto
          -16 -412 rmoveto
          -96 callsubr
          249 -32 callsubr
          225 vlineto
          -9 callsubr
          -225 0 callgsubr
          -87 -50 rlineto
          -249 vlineto
          100 -67 rlineto
          endchar
        </CharString>
        <CharString name="ellipsis">
          363 0 -56 callgsubr
          160 150 160 150 cntrmask 01110000
          100 hmoveto
          -84 callgsubr
          310 -150 -72 callgsubr
          310 -150 -72 callgsubr
          endchar
        </CharString>
        <CharString name="emdash">
          367 -27 callsubr
          834 87 -834 hlineto
          endchar
        </CharString>
        <CharString name="endash">
          89 -27 callsubr
          556 87 -556 hlineto
          endchar
        </CharString>
        <CharString name="equal">
          73 89 94 134 94 hstem
          590 183 rmoveto
          -51 callgsubr
          322 vmoveto
          -16 callsubr
        </CharString>
        <CharString name="eth">
          28 -5 90 255 90 57 74 54 90 hstem
          91 100 -10 callgsubr
          340 487 rmoveto
          106 -98 hlineto
          -53 callgsubr
          425 70 74 -70 77 8 callgsubr
          239 -54 -106 hlineto
          106 -476 -2 callgsubr
        </CharString>
        <CharString name="exclam">
          -257 0 150 580 -20 hstem
          100 150 -128 106 vstem
          100 hmoveto
          -84 callgsubr
          35 118 rmoveto
          80 hlineto
          26 462 rlineto
          -132 hlineto
          endchar
        </CharString>
        <CharString name="exclamdown">
          -257 -209 -21 580 -56 callgsubr
          -128 106 vstem
          100 350 -72 callgsubr
          9 -730 rmoveto
          132 hlineto
          -26 462 rlineto
          -80 hlineto
          endchar
        </CharString>
        <CharString name="f">
          -218 -25 callgsubr
          hstemhm
          132 -12 callsubr
          hintmask 11110000
          -57 callsubr
          hlineto
          -60 callgsubr
          vlineto
          endchar
        </CharString>
        <CharString name="ffi">
          428 -25 callgsubr
          hstem
          132 97 272 97 260 97 vstem
          229 -29 callsubr
          272 -46 callgsubr
          160 87 -160 143 362 87 -343 hlineto
          -103 callgsubr
          -163 -272 143 160 87 -141 vlineto
          -103 callgsubr
          -163 -92 -87 92 -413 97 vlineto
          726 -66 callgsubr
          hlineto
          endchar
        </CharString>
        <CharString name="ffl">
          488 -14 callgsubr
          292 97 240 -12 callsubr
          hintmask 11111100
          -57 callsubr
          292 -46 callgsubr
          150 87 -150 143 240 -576 hlineto
          -104 callsubr
          hintmask 11111010
          13 callgsubr
          hintmask 11111100
          -17 callsubr
          -292 143 190 87 -171 vlineto
          -103 callgsubr
          -163 -92 vlineto
          endchar
        </CharString>
        <CharString name="fi">
          29 -25 callgsubr
          hstem
          132 97 230 97 vstem
          -57 callsubr
          140 87 -140 -49 callsubr
          -18 callgsubr
          hlineto
          endchar
        </CharString>
        <CharString name="five">
          38 -5 90 256 90 179 2 callgsubr
          -80 100 245 100 hintmask 11101100
          210 610 rmoveto
          335 90 -435 -359 345 -256 hlineto
          hintmask 11110100
          -265 90 -100 -113 hlineto
          -104 callsubr
          233 -97 callsubr
          302 vlineto
          -103 callsubr
          hintmask 11101100
          -229 hlineto
          endchar
        </CharString>
        <CharString name="fj">
          29 -200 87 134 -21 413 87 143 87 hstemhm
          132 97 230 97 vstemhm
          -57 callsubr
          120 87 -120 -49 callsubr
          -613 hlineto
          hintmask 11111100
          -59 callsubr
        </CharString>
        <CharString name="fl">
          99 -14 callgsubr
          240 -12 callsubr
          hintmask 11110100
          585 hmoveto
          13 callgsubr
          hintmask 11111000
          -17 callsubr
          -92 -87 92 -46 callgsubr
          150 87 -150 143 240 -576 vlineto
          endchar
        </CharString>
        <CharString name="florin">
          -218 -200 87 526 87 143 87 hstemhm
          12 217 -97 217 hintmask 11110000
          229 -29 callsubr
          -60 callgsubr
          -87 92 -526 vlineto
          hintmask 11110000
          -59 callsubr
        </CharString>
        <CharString name="four">
          17 21 -21 162 87 451 -20 hstem
          386 98 vstem
          484 162 rmoveto
          90 87 -90 451 -92 hlineto
          -352 -452 rlineto
          -86 346 -162 98 vlineto
          -340 249 rmoveto
          2 vlineto
          240 306 rlineto
          2 -308 hlineto
          endchar
        </CharString>
        <CharString name="fraction">
          56 11 -21 720 -20 hstem
          563 710 rmoveto
          -553 -720 rlineto
          90 hlineto
          553 720 rlineto
          endchar
        </CharString>
        <CharString name="g">
          -32 -205 85 120 87 85 85 158 85 hstemhm
          60 97 -77 97 211 97 -67 97 hintmask 11110101
          177 hmoveto
          241 -120 hlineto
          hintmask 11111001
          -261 100 hlineto
          -97 -56 rlineto
          -62 vlineto
          -104 callsubr
          223 -97 callsubr
          158 vlineto
          -103 callsubr
          hintmask 11110110
          -222 85 192 -97 callsubr
          138 vlineto
          -61 36 rlineto
          hintmask 11110101
          91 53 rlineto
          34 -319 vlineto
          -103 callgsubr
          -205 vlineto
          71 -41 -71 -41 rlineto
          -90 vlineto
          97 359 rmoveto
          hintmask 11110110
          211 -158 -211 hlineto
          endchar
        </CharString>
        <CharString name="g.alt">
          -22 -200 87 124 87 320 87 -72 callsubr
          231 97 vstem
          479 505 rmoveto
          10 callgsubr
          -141 hlineto
          -103 callgsubr
          -360 vlineto
          -63 callgsubr
          rlineto
          -165 -278 -87 259 vlineto
          -96 callsubr
          638 vlineto
          -328 -407 rmoveto
          320 231 -320 vlineto
          endchar
        </CharString>
        <CharString name="germandbls">
          58 -9 callgsubr
          200 90 227 90 203 90 hstemhm
          30 190 -100 100 235 100 -70 100 hintmask 11111010
          30 317 rmoveto
          hintmask 11110110
          90 -517 100 810 235 -203 -162 -90 hlineto
          hintmask 11111001
          192 -227 -192 -90 176 -97 callsubr
          244 vlineto
          -104 59 rlineto
          hintmask 11110110
          74 43 rlineto
          220 vlineto
          -103 callsubr
          -203 hlineto
          -103 callgsubr
          -226 vlineto
          hintmask 11111010
          -90 hlineto
          endchar
        </CharString>
        <CharString name="grave">
          -107 611 -5 callgsubr
          315 718 -95 callgsubr
        </CharString>
        <CharString name="grave.cap">
          -107 811 -5 callgsubr
          315 918 -95 callgsubr
        </CharString>
        <CharString name="greater">
          43 20 -36 callgsubr
          90 407 rmoveto
          403 -156 rlineto
          -2 vlineto
          -403 -156 rlineto
          -94 vlineto
          500 200 rlineto
          102 vlineto
          -500 200 rlineto
          endchar
        </CharString>
        <CharString name="greaterequal">
          73 0 94 407 -20 hstem
          90 410 rmoveto
          364 -89 rlineto
          -2 vlineto
          -364 -89 rlineto
          -91 vlineto
          500 130 rlineto
          102 vlineto
          -500 130 rlineto
          -501 vmoveto
          500 94 -500 hlineto
          endchar
        </CharString>
        <CharString name="guillemotleft">
          73 -71 callsubr
          250 -81 callsubr
          endchar
        </CharString>
        <CharString name="guillemotright">
          73 21 -36 callgsubr
          340 hmoveto
          -79 callsubr
          -250 -107 rmoveto
          -79 callsubr
          endchar
        </CharString>
        <CharString name="guilsinglleft">
          -177 -71 callsubr
          endchar
        </CharString>
        <CharString name="guilsinglright">
          -177 21 -36 callgsubr
          90 hmoveto
          -79 callsubr
          endchar
        </CharString>
        <CharString name="h">
          -12 -36 callsubr
          225 -66 callsubr
          266 -97 -730 vlineto
          endchar
        </CharString>
        <CharString name="hbar">
          -12 -36 callsubr
          80 74 71 -66 callsubr
          121 149 74 -149 71 -97 -71 -70 -74 70 -585 vlineto
          endchar
        </CharString>
        <CharString name="hungarumlaut">
          -107 590 128 hstem
          245 590 rmoveto
          -98 callsubr
          -273 -128 -102 callsubr
        </CharString>
        <CharString name="hyphen">
          -169 -27 callsubr
          298 87 -298 hlineto
          endchar
        </CharString>
        <CharString name="i">
          -56 callsubr
          143 107 hstem
          80 97 vstem
          -42 callsubr
          endchar
        </CharString>
        <CharString name="iacute">
          -56 callsubr
          238 -73 callgsubr
          hlineto
          -117 590 -102 callsubr
        </CharString>
        <CharString name="icircumflex">
          -56 callsubr
          248 -73 callgsubr
          hlineto
          -104 728 -107 callsubr
        </CharString>
        <CharString name="idieresis">
          -56 callsubr
          115 105 hstem
          -33 105 8 97 9 105 -69 callgsubr
          hlineto
          -210 595 -99 callgsubr
        </CharString>
        <CharString name="igrave">
          -56 callsubr
          238 -73 callgsubr
          hlineto
          -74 718 -95 callgsubr
        </CharString>
        <CharString name="ij">
          -93 -200 87 134 -52 callgsubr
          143 107 -35 callgsubr
          160 97 vstemhm
          -42 callsubr
          257 -107 -6 callgsubr
          102 -230 rmoveto
          -97 -613 hlineto
          hintmask 11111100
          -59 callsubr
        </CharString>
        <CharString name="infinity">
          283 103 90 235 90 -74 callsubr
          205 100 205 100 cntrmask 00111000
          190 428 -4 callgsubr
          235 -4 callgsubr
          -23 rmoveto
          281 vlineto
          -103 callsubr
          -123 hlineto
          -116 -67 -103 callsubr
          -123 hlineto
          -103 callgsubr
          -281 vlineto
          -104 callsubr
          123 hlineto
          116 67 -104 callsubr
          123 hlineto
          endchar
        </CharString>
        <CharString name="itilde">
          -56 callsubr
          254 -20 hstem
          -24 68 36 97 37 68 -69 callgsubr
          hlineto
          -131 667 -94 callgsubr
        </CharString>
        <CharString name="j">
          1 callsubr
          143 107 -35 callgsubr
          vstemhm
          75 623 -6 callgsubr
          102 -230 -35 callsubr
          endchar
        </CharString>
        <CharString name="jcircumflex">
          1 callsubr
          248 -20 callgsubr
          vstemhm
          177 500 -35 callsubr
          -104 861 -107 callsubr
        </CharString>
        <CharString name="k">
          -76 -56 callsubr
          250 -12 callgsubr
          730 rmoveto
          -97 -730 -86 callgsubr
          endchar
        </CharString>
        <CharString name="kcommaaccent">
          -76 -314 -21 356 -52 callgsubr
          250 -12 callgsubr
          730 rmoveto
          -97 -730 -86 callgsubr
          53 -586 -69 callsubr
        </CharString>
        <CharString name="kgreenlandic">
          -76 21 -21 500 -20 hstem
          80 97 vstem
          177 500 rmoveto
          -97 -500 -86 callgsubr
          endchar
        </CharString>
        <CharString name="l">
          -290 0 87 643 -20 hstemhm
          80 -12 callsubr
          hintmask 11010000
          196 hmoveto
          13 callgsubr
          hintmask 11100000
          7 callsubr
          endchar
        </CharString>
        <CharString name="l.alt">
          21 -21 730 -12 callgsubr
          hmoveto
          730 -97 -730 vlineto
          endchar
        </CharString>
        <CharString name="ldot">
          -207 0 87 152 120 371 -20 hstemhm
          80 -12 callsubr
          -33 120 hintmask 11101000
          196 hmoveto
          13 callgsubr
          hintmask 11110100
          7 callsubr
          184 172 -1 callsubr
        </CharString>
        <CharString name="less">
          43 20 -36 callgsubr
          560 501 rmoveto
          -500 -200 rlineto
          -102 vlineto
          500 -200 rlineto
          94 vlineto
          -403 156 rlineto
          2 vlineto
          403 156 rlineto
          endchar
        </CharString>
        <CharString name="lessequal">
          73 0 94 407 -20 hstem
          590 501 rmoveto
          -500 -130 rlineto
          -102 vlineto
          500 -130 rlineto
          91 vlineto
          -364 89 rlineto
          2 vlineto
          364 89 rlineto
          -316 vmoveto
          -16 callsubr
        </CharString>
        <CharString name="lslash">
          -290 0 87 643 -20 hstemhm
          20 157 -97 97 -97 197 -197 217 6 callgsubr
          60 16 rlineto
          -240 vlineto
          -104 callsubr
          hintmask 11000100
          13 callgsubr
          hintmask 11100000
          -120 247 hlineto
          hintmask 11001000
          100 27 rlineto
          74 vlineto
          hintmask 11100000
          -100 -27 rlineto
          322 vlineto
          hintmask 11010000
          -97 -349 hlineto
          hintmask 11100000
          -60 -16 rlineto
          endchar
        </CharString>
        <CharString name="m">
          226 -36 callsubr
          -72 callsubr
          191 97 191 97 cntrmask 00111000
          753 438 rmoveto
          -103 callsubr
          -101 hlineto
          -94 -54 -93 54 rlineto
          -101 -68 callsubr
          191 -418 97 418 191 -418 97 hlineto
          endchar
        </CharString>
        <CharString name="macron">
          -8 600 67 hstem
          144 600 rmoveto
          311 67 -311 hlineto
          endchar
        </CharString>
        <CharString name="madslug">
          289 -9 61 -61 218 302 219 -61 61 hstemhm
          80 183 370 183 hintmask 10011100
          650 51 rmoveto
          -2 2 rlineto
          0 -12 -1 -7 -61 -52 25 57 58 57 239 2 10 vhcurveto
          11 6 72 15 22 hhcurveto
          9 8 -3 -9 hvcurveto
          -13 -59 -225 -56 vvcurveto
          -32 17 -19 31 61 74 117 133 205 -164 165 -205 -75 -68 -23 -37 -58 vhcurveto
          2 -3 rlineto
          0 12 2 7 61 52 -25 -57 -58 -57 -239 -2 -10 vhcurveto
          -11 -6 -72 -15 -22 hhcurveto
          -9 -8 3 8 hvcurveto
          14 59 225 56 vvcurveto
          32 -17 19 -31 -61 -74 -117 -133 -205 164 -165 203 74 70 23 37 59 vhcurveto
          -174 183 rmoveto
          hintmask 01101100
          -15 -19 -58 -10 -20 hhcurveto
          -10 -6 3 7 19 53 229 4 20 hvcurveto
          15 19 58 9 20 hhcurveto
          10 6 -2 -7 -19 -53 -229 -4 -20 hvcurveto
          endchar
        </CharString>
        <CharString name="minus">
          -7 203 94 hstem
          -8 callgsubr
          endchar
        </CharString>
        <CharString name="mu">
          5 -137 -21 158 87 413 -20 -72 callsubr
          231 97 vstem
          432 hmoveto
          160 87 -87 413 -97 -413 -231 413 -97 -658 97 158 160 3 callgsubr
          rlineto
          endchar
        </CharString>
        <CharString name="multiply">
          3 26 -21 490 -20 hstem
          126 495 rmoveto
          -66 -66 179 -179 -179 -179 66 -66 179 179 179 -179 66 66 -179 179 179 179 -66 66 -179 -179 rlineto
          endchar
        </CharString>
        <CharString name="n">
          -22 -36 callsubr
          -70 callgsubr
          endchar
        </CharString>
        <CharString name="nacute">
          -22 -36 callsubr
          213 -20 -70 callgsubr
          -304 590 -102 callsubr
        </CharString>
        <CharString name="nine">
          28 -5 -30 callgsubr
          235 -26 callgsubr
          445 85 rmoveto
          -255 90 -100 -113 hlineto
          -104 callsubr
          223 -97 callsubr
          -85 callsubr
          -223 hlineto
          -103 callgsubr
          -281 vlineto
          -104 callsubr
          168 3 callgsubr
          rlineto
          49 vmoveto
          -255 235 255 hlineto
          endchar
        </CharString>
        <CharString name="notequal">
          73 -11 194 -94 94 134 94 -94 194 hstemhm
          hintmask 10100000
          590 411 rmoveto
          -79 hlineto
          hintmask 10010000
          79 100 rlineto
          -90 hlineto
          hintmask 10100000
          -79 -100 rlineto
          -331 -94 257 hlineto
          -105 -134 rlineto
          -152 hlineto
          hintmask 01100000
          -94 78 vlineto
          hintmask 10100000
          -78 -100 rlineto
          90 hlineto
          hintmask 01100000
          78 100 rlineto
          332 94 -258 hlineto
          105 134 rlineto
          153 hlineto
          endchar
        </CharString>
        <CharString name="ntilde">
          -22 -36 callsubr
          229 -20 callgsubr
          -38 -21 callsubr
          -37 97 hintmask 11110010
          -83 callsubr
          -296 667 -60 callsubr
        </CharString>
        <CharString name="numbersign">
          149 1 -21 192 76 212 76 184 -20 hstem
          426 -20 rmoveto
          83 hlineto
          17 192 rlineto
          170 76 15 callgsubr
          19 212 rlineto
          144 76 -137 -7 callsubr
          -176 -7 callsubr
          -157 -76 150 hlineto
          -19 -212 rlineto
          -131 -76 124 hlineto
          -17 -192 rlineto
          83 hlineto
          17 192 rlineto
          176 hlineto
          -150 288 rmoveto
          176 hlineto
          -19 -212 rlineto
          -176 hlineto
          endchar
        </CharString>
        <CharString name="o">
          -22 -62 callgsubr
          -101 callsubr
          endchar
        </CharString>
        <CharString name="oacute">
          -22 -62 callgsubr
          213 -20 -101 callsubr
          41 508 -102 callsubr
        </CharString>
        <CharString name="ocircumflex">
          -22 -62 callgsubr
          223 -20 -101 callsubr
          63 646 -107 callsubr
        </CharString>
        <CharString name="odieresis">
          -22 -62 callgsubr
          90 105 -35 callgsubr
          -46 -50 callgsubr
          -47 97 hintmask 11110010
          -106 callsubr
          hintmask 11101100
          -46 513 -99 callgsubr
        </CharString>
        <CharString name="oe">
          276 0 87 -71 -21 221 87 115 87 -35 callgsubr
          231 -21 callgsubr
          hintmask 10111110
          803 -42 callgsubr
          -68 -39 -67 39 rlineto
          -193 hlineto
          -103 callgsubr
          -376 vlineto
          hintmask 01111110
          -104 callsubr
          193 hlineto
          72 41 rlineto
          hintmask 10111110
          63 -36 rlineto
          3 callsubr
          -626 418 rmoveto
          231 -336 -231 hlineto
          328 -14 callsubr
        </CharString>
        <CharString name="ogonek">
          -87 -177 -21 198 -20 hstem
          180 67 vstem
          247 hmoveto
          -67 -131 hlineto
          -104 callsubr
          44 67 -93 hlineto
          endchar
        </CharString>
        <CharString name="ograve">
          -22 -62 callgsubr
          213 -20 -101 callsubr
          115 636 -95 callgsubr
        </CharString>
        <CharString name="one">
          -37 12 callgsubr
          hstem
          260 100 vstem
          90 490 rmoveto
          170 98 rlineto
          -498 -170 -90 440 90 -170 610 -80 vlineto
          -190 -109 rlineto
          endchar
        </CharString>
        <CharString name="ordfeminine">
          -62 0 87 108 -50 callsubr
          121 87 hstem
          60 -22 callsubr
          157 405 -102 callgsubr
          -3 callgsubr
          -103 callgsubr
          -163 vlineto
          -262 vmoveto
          395 87 -395 hlineto
          endchar
        </CharString>
        <CharString name="ordmasculine">
          -2 0 87 108 -61 callsubr
          hstem
          90 97 231 97 vstem
          515 262 -106 callgsubr
          231 -336 -231 hlineto
          -97 -282 rmoveto
          425 87 -425 hlineto
          endchar
        </CharString>
        <CharString name="oslash">
          -22 -62 callgsubr
          -72 callsubr
          231 97 vstem
          505 62 -106 callgsubr
          191 hlineto
          -191 -278 rlineto
          40 -58 rmoveto
          191 278 rlineto
          -278 vlineto
          endchar
        </CharString>
        <CharString name="otilde">
          -22 -62 callgsubr
          229 -20 callgsubr
          -34 -21 callsubr
          -41 97 hintmask 11110010
          -106 callsubr
          36 585 -60 callsubr
        </CharString>
        <CharString name="p">
          -40 callgsubr
          -72 callsubr
          241 97 vstem
          399 -5 rmoveto
          -96 callsubr
          376 vlineto
          -103 callsubr
          -151 hlineto
          -63 callsubr
          -705 97 236 hlineto
          71 -41 rlineto
          -71 423 rmoveto
          -29 callgsubr
        </CharString>
        <CharString name="paragraph">
          78 -9 callgsubr
          813 87 hstem
          304 97 97 97 vstem
          498 -200 rmoveto
          97 900 -419 hlineto
          -103 callgsubr
          -317 vlineto
          -104 callsubr
          128 -449 97 813 97 hlineto
          endchar
        </CharString>
        <CharString name="parenleft">
          -48 callgsubr
          hstem
          90 80 vstem
          170 660 rmoveto
          133 70 -97 hlineto
          -103 callgsubr
          -796 vlineto
          -104 callsubr
          97 70 -133 hlineto
          endchar
        </CharString>
        <CharString name="parenright">
          -48 callgsubr
          hstem
          193 80 vstem
          193 -130 rmoveto
          -133 -70 97 -97 callsubr
          796 vlineto
          -103 callsubr
          -97 -70 133 hlineto
          endchar
        </CharString>
        <CharString name="partialdiff">
          28 -5 90 255 90 185 -26 callgsubr
          445 615 rmoveto
          -226 vlineto
          -53 callgsubr
          576 8 callgsubr
          hlineto
          239 -530 -2 callgsubr
        </CharString>
        <CharString name="percent">
          384 -10 2 callsubr
          14 -4 callsubr
          141 -78 callsubr
          536 272 -17 callgsubr
          -231 -434 rmoveto
          -41 callsubr
          116 67 rlineto
          219 vlineto
          -103 callsubr
          -113 hlineto
          138 -272 rmoveto
          -163 191 163 hlineto
          endchar
        </CharString>
        <CharString name="period">
          -257 0 -34 callgsubr
          endchar
        </CharString>
        <CharString name="periodcentered">
          -257 284 -47 callgsubr
          284 -72 callgsubr
          endchar
        </CharString>
        <CharString name="perthousand">
          789 -10 2 callsubr
          14 -4 callsubr
          141 -11 callsubr
          90 -11 callsubr
          vstem
          707 710 -17 callgsubr
          -372 -286 -89 callgsubr
          395 -162 rmoveto
          -41 callsubr
          116 67 rlineto
          219 vlineto
          -103 callsubr
          -113 hlineto
          138 -272 rmoveto
          -163 191 163 hlineto
          181 14 rmoveto
          -41 callsubr
          116 67 rlineto
          219 vlineto
          -103 callsubr
          -113 hlineto
          138 -272 rmoveto
          -163 191 163 hlineto
          endchar
        </CharString>
        <CharString name="plus">
          -7 21 -21 203 94 203 -20 hstem
          253 94 vstem
          50 297 rmoveto
          -94 203 -203 94 203 203 94 -203 203 -94 -203 vlineto
          endchar
        </CharString>
        <CharString name="plusminus">
          73 0 94 179 94 133 -20 hstem
          293 94 vstem
          90 367 rmoveto
          -94 203 -133 94 133 203 94 -203 133 -94 -133 vlineto
          297 -273 rmoveto
          -16 callsubr
        </CharString>
        <CharString name="q">
          -40 callgsubr
          -72 callsubr
          241 97 vstem
          347 -5 rmoveto
          71 41 rlineto
          -236 97 705 -26 vlineto
          10 callgsubr
          -151 -92 callsubr
          222 87 -2 callsubr
        </CharString>
        <CharString name="question">
          -27 0 150 241 90 159 2 callgsubr
          -17 150 -120 89 98 100 hintmask 11110110
          297 391 rmoveto
          77 -97 callsubr
          205 vlineto
          -116 67 rlineto
          -168 -33 callgsubr
          200 -159 -76 vlineto
          -116 -67 10 -146 -19 callsubr
          hintmask 11101010
          -115 -268 -72 callgsubr
          endchar
        </CharString>
        <CharString name="questiondown">
          -27 -230 90 159 90 241 150 -15 callgsubr
          67 150 -120 90 13 100 hintmask 11110110
          283 109 rmoveto
          -77 hlineto
          -103 callgsubr
          -205 vlineto
          -104 callsubr
          168 -97 callsubr
          113 -100 -90 -200 159 76 vlineto
          116 67 -10 146 rlineto
          -80 hlineto
          hintmask 11111000
          115 268 rmoveto
          -150 -150 150 hlineto
          endchar
        </CharString>
        <CharString name="quotedbl">
          -177 459 -21 292 -20 hstem
          80 90 90 90 vstem
          90 438 -39 callgsubr
          200 -292 -39 callgsubr
          endchar
        </CharString>
        <CharString name="quotedblbase">
          -17 -179 -45 callgsubr
          100 -200 -65 callsubr
        </CharString>
        <CharString name="quotedblleft">
          -37 -37 callgsubr
          480 730 -52 callsubr
          -240 350 -52 callsubr
          endchar
        </CharString>
        <CharString name="quotedblright">
          -37 -37 callgsubr
          90 380 -65 callsubr
        </CharString>
        <CharString name="quoteleft">
          -277 -37 callgsubr
          240 730 -52 callsubr
          endchar
        </CharString>
        <CharString name="quoteright">
          -277 -37 callgsubr
          90 380 -85 callgsubr
          endchar
        </CharString>
        <CharString name="quotesinglbase">
          -58 callsubr
        </CharString>
        <CharString name="quotesingle">
          -357 459 -21 292 -20 hstem
          80 90 vstem
          90 438 -39 callgsubr
          endchar
        </CharString>
        <CharString name="r">
          -218 11 callsubr
          -72 callsubr
          vstem
          359 -29 callsubr
          87 -111 vlineto
          -63 callsubr
          -18 callgsubr
          413 hlineto
          endchar
        </CharString>
        <CharString name="rcaron">
          -218 11 callsubr
          -11 callgsubr
          80 97 vstem
          359 -29 callsubr
          87 -111 vlineto
          -63 callsubr
          -18 callgsubr
          413 hlineto
          72 177 -94 callsubr
        </CharString>
        <CharString name="rcommaaccent">
          -218 -314 -21 280 55 413 87 -72 callsubr
          vstem
          359 -29 callsubr
          87 -111 vlineto
          -63 callsubr
          -18 callgsubr
          413 hlineto
          -28 -748 -69 callsubr
        </CharString>
        <CharString name="registered">
          233 -5 70 238 63 133 63 73 70 hstem
          90 80 92 69 177 69 93 80 vstem
          750 -32 callgsubr
          -428 hlineto
          -103 callgsubr
          -576 vlineto
          -104 callsubr
          428 hlineto
          -464 640 rmoveto
          500 -570 -500 hlineto
          267 238 rmoveto
          94 -165 rlineto
          77 hlineto
          -99 168 68 40 rlineto
          174 vlineto
          -74 42 rlineto
          -241 -424 69 165 hlineto
          196 vmoveto
          177 -133 -177 hlineto
          endchar
        </CharString>
        <CharString name="ring">
          -78 570 -28 callsubr
          617 -89 callsubr
        </CharString>
        <CharString name="ring.cap">
          -78 770 -28 callsubr
          817 -89 callsubr
        </CharString>
        <CharString name="s">
          -71 -25 callsubr
          -72 callsubr
          182 97 vstem
          456 230 rmoveto
          -103 callsubr
          -163 116 269 87 -250 hlineto
          -103 callgsubr
          -156 vlineto
          -104 callsubr
          163 -123 -279 -87 260 -97 callsubr
          endchar
        </CharString>
        <CharString name="scaron">
          -71 -25 callsubr
          -11 callgsubr
          80 97 182 97 vstem
          456 230 rmoveto
          -103 callsubr
          -163 116 269 87 -250 hlineto
          -103 callgsubr
          -156 vlineto
          -104 callsubr
          163 -123 -279 -87 260 -97 callsubr
          -133 523 -94 callsubr
        </CharString>
        <CharString name="section">
          46 -200 90 183 90 179 90 183 2 callgsubr
          -72 100 227 100 -82 100 hintmask 11110110
          445 163 rmoveto
          -227 179 227 hlineto
          -327 -6 rmoveto
          -196 vlineto
          -104 callsubr
          211 -183 hlineto
          hintmask 11111010
          -255 80 -100 -103 hlineto
          -104 callsubr
          223 -97 callsubr
          200 -32 callsubr
          196 vlineto
          -103 callsubr
          hintmask 11110101
          -211 183 245 -80 100 103 hlineto
          -103 callsubr
          -213 hlineto
          -103 callgsubr
          -200 0 callgsubr
          endchar
        </CharString>
        <CharString name="semicolon">
          -257 -9 callgsubr
          350 200 0 -47 callgsubr
          350 -72 callgsubr
          -700 vmoveto
          -87 callsubr
          endchar
        </CharString>
        <CharString name="seven">
          8 21 -21 520 180 -90 90 hstemhm
          60 100 hintmask 11010000
          273 hmoveto
          292 640 rlineto
          60 -505 -180 100 vlineto
          hintmask 10110000
          90 286 -2 vlineto
          -279 -608 rlineto
          endchar
        </CharString>
        <CharString name="six">
          28 -5 90 235 90 205 -26 callgsubr
          190 615 rmoveto
          255 -64 callsubr
          -223 hlineto
          -103 callgsubr
          -576 vlineto
          -104 callsubr
          223 -97 callsubr
          281 vlineto
          -103 callsubr
          -168 hlineto
          -71 -41 rlineto
          -49 vmoveto
          255 -235 -255 hlineto
          endchar
        </CharString>
        <CharString name="slash">
          9 callgsubr
          30 -20 rmoveto
          90 hlineto
          236 740 rlineto
          -90 hlineto
          endchar
        </CharString>
        <CharString name="space">
          -347 endchar
        </CharString>
        <CharString name="st">
          302 -25 callsubr
          140 -20 callgsubr
          182 97 176 -12 callsubr
          hintmask 11111110
          177 -29 callsubr
          455 -346 hlineto
          -104 callsubr
          hintmask 11111101
          13 callgsubr
          hintmask 11111110
          11 callgsubr
          hintmask 11111101
          120 87 hlineto
          hintmask 11111110
          -33 callsubr
          -436 vlineto
          -103 callgsubr
          -156 vlineto
          -104 callsubr
          163 -123 -279 -87 260 -97 callsubr
          163 vlineto
          -103 callsubr
          15 callgsubr
          endchar
        </CharString>
        <CharString name="sterling">
          35 0 90 201 74 250 90 hstemhm
          117 100 225 100 -50 100 hintmask 11111000
          356 365 rmoveto
          -139 250 225 -64 callsubr
          -193 hlineto
          -103 callgsubr
          -273 -77 -74 77 -291 359 vlineto
          hintmask 11110100
          -96 callsubr
          113 -100 -90 -275 201 139 vlineto
          endchar
        </CharString>
        <CharString name="t">
          -198 -46 callsubr
          140 -20 hstemhm
          132 -12 callsubr
          hintmask 11110000
          40 -29 callsubr
          92 -346 hlineto
          -104 callsubr
          hintmask 11101000
          101 87 -23 callgsubr
          326 hlineto
          -41 callgsubr
          140 hlineto
          -97 -56 rlineto
          -84 -92 vlineto
          endchar
        </CharString>
        <CharString name="thorn">
          -40 callgsubr
          225 -20 -72 callsubr
          241 97 vstem
          80 730 rmoveto
          -930 97 236 vlineto
          71 -41 rlineto
          151 -97 callsubr
          376 -7 callgsubr
          266 vlineto
          -312 vmoveto
          -29 callgsubr
        </CharString>
        <CharString name="three">
          44 -5 90 232 90 208 90 -74 callsubr
          271 100 vstem
          445 -5 rmoveto
          -96 callsubr
          249 -32 callsubr
          225 vlineto
          -103 callsubr
          -239 -33 callgsubr
          271 -208 -205 -90 205 -232 -271 90 -100 -113 vlineto
          -104 callsubr
          endchar
        </CharString>
        <CharString name="tilde">
          -101 606 -16 callgsubr
          667 -94 callgsubr
        </CharString>
        <CharString name="tilde.cap">
          -101 806 -16 callgsubr
          867 -94 callgsubr
        </CharString>
        <CharString name="trademark">
          238 361 -21 297 63 hstem
          167 68 157 66 231 66 vstem
          689 340 rmoveto
          66 360 -85 hlineto
          -95 -265 -43 callsubr
          -96 265 rlineto
          -85 -360 66 243 2 hlineto
          82 -243 rlineto
          61 hlineto
          84 243 rlineto
          2 hlineto
          -454 54 rmoveto
          96 63 -261 -63 97 -297 68 hlineto
          endchar
        </CharString>
        <CharString name="two">
          23 0 90 201 90 229 90 -74 callsubr
          250 12 callsubr
          90 rmoveto
          201 234 vlineto
          -96 callsubr
          275 vlineto
          -103 callsubr
          -218 -33 callgsubr
          250 -229 -234 vlineto
          -103 callgsubr
          -314 450 90 vlineto
          endchar
        </CharString>
        <CharString name="u">
          -23 callsubr
          -72 callsubr
          231 97 vstem
          -93 callgsubr
          endchar
        </CharString>
        <CharString name="uacute">
          -75 callgsubr
          155 90 -102 callsubr
        </CharString>
        <CharString name="ucircumflex">
          -23 callsubr
          248 -20 -72 callsubr
          231 97 vstem
          -93 callgsubr
          158 228 -107 callsubr
        </CharString>
        <CharString name="udieresis">
          -23 callsubr
          115 105 -35 callgsubr
          -47 -50 callgsubr
          -46 97 hintmask 11110010
          -93 callgsubr
          hintmask 11101100
          50 95 -99 callgsubr
        </CharString>
        <CharString name="ugrave">
          -75 callgsubr
          195 218 -95 callgsubr
        </CharString>
        <CharString name="underscore">
          5 -200 84 hstem
          632 -116 rmoveto
          -652 -84 652 hlineto
          endchar
        </CharString>
        <CharString name="uni00A0">
          -347 endchar
        </CharString>
        <CharString name="v">
          -80 1 callgsubr
          115 500 rmoveto
          -95 hlineto
          185 -500 rlineto
          117 hlineto
          185 500 rlineto
          -95 hlineto
          -148 -408 -43 callsubr
          endchar
        </CharString>
        <CharString name="w">
          150 1 callgsubr
          487 hmoveto
          115 hlineto
          125 500 rlineto
          -90 hlineto
          -95 -391 -43 callsubr
          -110 391 rlineto
          -103 hlineto
          -110 -391 -43 callsubr
          -95 391 rlineto
          -90 hlineto
          125 -500 rlineto
          115 hlineto
          107 382 rlineto
          2 hlineto
          endchar
        </CharString>
        <CharString name="x">
          -107 1 callgsubr
          20 hmoveto
          105 hlineto
          125 183 125 -183 rlineto
          105 hlineto
          -180 255 174 245 rlineto
          -108 hlineto
          -116 -172 -116 172 rlineto
          -108 hlineto
          173 -245 rlineto
          endchar
        </CharString>
        <CharString name="y">
          -88 -179 -39 callsubr
          hstem
          -86 callsubr
          endchar
        </CharString>
        <CharString name="yacute">
          -88 -179 -39 callsubr
          238 -20 hstem
          -86 callsubr
          -18 567 -102 callsubr
        </CharString>
        <CharString name="ydieresis">
          -88 -179 -39 callsubr
          115 105 hstem
          98 10 callsubr
          -86 callsubr
          -115 572 -99 callgsubr
        </CharString>
        <CharString name="yen">
          44 21 -21 148 74 81 74 323 -20 hstem
          275 100 vstem
          77 303 rmoveto
          198 -81 -198 -74 198 -148 100 148 198 74 -198 81 198 74 -157 hlineto
          195 323 -80 callgsubr
          194 -323 rlineto
          -157 hlineto
          endchar
        </CharString>
        <CharString name="z">
          -141 -46 callsubr
          -54 callgsubr
          endchar
        </CharString>
        <CharString name="zcaron">
          -141 -46 callsubr
          228 -20 -54 callgsubr
          -12 179 -94 callsubr
        </CharString>
        <CharString name="zero">
          5 callgsubr
          285 100 vstem
          575 -32 callgsubr
          -253 hlineto
          -103 callgsubr
          -576 vlineto
          -104 callsubr
          253 hlineto
          -269 620 rmoveto
          285 -530 -285 hlineto
          endchar
        </CharString>
      <CharString index="0">
        394 -18 callsubr
        -124 hlineto
        -250 -700 -91 callsubr
        -313 601 -82 callgsubr
        return
      </CharString>
      <CharString index="1">
        rmoveto
        376 vlineto
        -103 callsubr
        -193 -92 callsubr
        193 hlineto
        -212 423 rmoveto
        return
      </CharString>
      <CharString index="2">
        -105 callsubr
        325 -530 14 callgsubr
        return
      </CharString>
      <CharString index="3">
        157 205 -102 callgsubr
        -3 callgsubr
        -103 callgsubr
        -163 vlineto
        return
      </CharString>
      <CharString index="4">
        -116 -67 rlineto
        return
      </CharString>
      <CharString index="5">
        -96 callgsubr
        26 438 hlineto
        -103 callsubr
        return
      </CharString>
      <CharString index="6">
        -98 callsubr
        endchar
      </CharString>
      <CharString index="7">
        -74 callsubr
        325 100 vstem
        -105 callgsubr
        return
      </CharString>
      <CharString index="8">
        rmoveto
        -99 callsubr
      </CharString>
      <CharString index="9">
        -20 hstem
        -107 callgsubr
        return
      </CharString>
      <CharString index="10">
        -90 callsubr
        -79 callgsubr
      </CharString>
      <CharString index="11">
        -78 callgsubr
        19 -87 rmoveto
        111 hlineto
        -62 callsubr
        return
      </CharString>
      <CharString index="12">
        rmoveto
        -130 -38 callsubr
        -128 -54 callsubr
      </CharString>
      <CharString index="13">
        -38 callgsubr
        -97 callgsubr
      </CharString>
      <CharString index="14">
        80 62 rmoveto
        -63 callgsubr
        24 -41 rlineto
        73 505 -97 -418 -231 418 -97 hlineto
        return
      </CharString>
      <CharString index="15">
        219 -105 -76 callsubr
        endchar
      </CharString>
      <CharString index="16">
        -103 callgsubr
        -376 vlineto
        -104 callsubr
        return
      </CharString>
      <CharString index="17">
        hstem
        90 100 vstem
        -93 callsubr
        return
      </CharString>
      <CharString index="18">
        rmoveto
        219 vlineto
        -103 callsubr
        -113 hlineto
        -103 callgsubr
        -41 callsubr
        -138 272 rmoveto
        163 -191 15 callgsubr
        return
      </CharString>
      <CharString index="19">
        255 hmoveto
        100 308 hlineto
        236 392 -80 callgsubr
        235 -391 rlineto
        return
      </CharString>
      <CharString index="20">
        -64 callgsubr
        -19 callgsubr
        80 -22 callsubr
        475 -42 callgsubr
        -103 callgsubr
        -371 vlineto
        -104 callsubr
        3 callsubr
        -298 418 -73 callsubr
        return
      </CharString>
      <CharString index="21">
        97 119 hlineto
        73 86 162 -205 rlineto
        119 hlineto
        -223 274 193 226 rlineto
        -116 hlineto
        -206 -249 -43 callsubr
        return
      </CharString>
      <CharString index="22">
        rmoveto
        -87 callsubr
        return
      </CharString>
      <CharString index="23">
        150 150 -150 hlineto
        return
      </CharString>
      <CharString index="24">
        98 -55 callgsubr
        203 -20 -100 callgsubr
        return
      </CharString>
      <CharString index="25">
        rmoveto
        2 hlineto
        122 -345 16 callgsubr
        hlineto
        return
      </CharString>
      <CharString index="26">
        -26 callsubr
        341 279 rmoveto
        158 -279 rlineto
        111 hlineto
        -161 279 -96 callsubr
        287 vlineto
        -103 callsubr
        -359 -700 100 3 callsubr
        331 vmoveto
        275 -241 -275 hlineto
        return
      </CharString>
      <CharString index="27">
        -51 callsubr
        -173 -298 -43 callsubr
        -172 298 -51 callsubr
        return
      </CharString>
      <CharString index="28">
        -94 -55 rlineto
        -94 68 82 vlineto
        endchar
      </CharString>
      <CharString index="29">
        rmoveto
        201 -123 -201 hlineto
        return
      </CharString>
      <CharString index="30">
        -22 callgsubr
        228 -47 callsubr
        -95 callsubr
        return
      </CharString>
      <CharString index="31">
        -72 -5 -50 callsubr
        121 87 return
      </CharString>
      <CharString index="32">
        -23 callsubr
        238 -20 -72 callsubr
        231 97 vstem
        -93 callgsubr
        return
      </CharString>
      <CharString index="33">
        -20 hstem
        -10 callgsubr
        -88 callgsubr
        return
      </CharString>
      <CharString index="34">
        -20 -70 callsubr
        return
      </CharString>
      <CharString index="35">
        rmoveto
        -84 callgsubr
        return
      </CharString>
      <CharString index="36">
        13 callsubr
        166 90 444 -20 return
      </CharString>
      <CharString index="37">
        -72 callsubr
        231 97 vstem
        -83 callsubr
        return
      </CharString>
      <CharString index="38">
        vstem
        -80 callsubr
        return
      </CharString>
      <CharString index="39">
        12 callsubr
        529 rmoveto
        2 hlineto
        362 -529 rlineto
        91 700 -100 -529 -2 hlineto
        -362 529 rlineto
        -91 -700 100 hlineto
        return
      </CharString>
      <CharString index="40">
        -55 callsubr
        vstem
        -58 callgsubr
        return
      </CharString>
      <CharString index="41">
        -44 callgsubr
        -18 callgsubr
        return
      </CharString>
      <CharString index="42">
        hstem
        70 610 rmoveto
        325 -2 hlineto
        -345 -548 rlineto
        -60 475 90 -345 2 vlineto
        345 548 rlineto
        60 -455 vlineto
        return
      </CharString>
      <CharString index="43">
        -52 0 87 129 87 115 87 return
      </CharString>
      <CharString index="44">
        -104 callsubr
        141 3 callgsubr
        return
      </CharString>
      <CharString index="45">
        -5 -61 callsubr
        return
      </CharString>
      <CharString index="46">
        21 -39 callsubr
        return
      </CharString>
      <CharString index="47">
        -41 callgsubr
        143 hlineto
        -24 callsubr
        -101 -48 callsubr
        return
      </CharString>
      <CharString index="48">
        -31 callgsubr
        10 222 rlineto
        -85 hlineto
        10 -222 -31 callsubr
        return
      </CharString>
      <CharString index="49">
        90 hmoveto
        100 700 -100 hlineto
        return
      </CharString>
      <CharString index="50">
        rmoveto
        -225 140 -100 15 callgsubr
        -104 callsubr
        193 -97 callsubr
        638 -100 vlineto
        endchar
      </CharString>
      <CharString index="51">
        150 hstem
        100 150 return
      </CharString>
      <CharString index="52">
        -5 -20 callsubr
        return
      </CharString>
      <CharString index="53">
        hstem
        40 66 rmoveto
        -66 376 87 -252 2 vlineto
        252 345 rlineto
        66 -366 -87 242 -2 vlineto
        return
      </CharString>
      <CharString index="54">
        -71 41 9 callsubr
        -301 vlineto
        -104 callsubr
        223 -97 callsubr
        return
      </CharString>
      <CharString index="55">
        -21 500 -20 return
      </CharString>
      <CharString index="56">
        -500 -94 500 hlineto
        return
      </CharString>
      <CharString index="57">
        105 114 105 return
      </CharString>
      <CharString index="58">
        -37 callsubr
        228 -67 callgsubr
        return
      </CharString>
      <CharString index="59">
        -244 -200 70 790 70 return
      </CharString>
      <CharString index="60">
        -56 callgsubr
        vstem
        100 return
      </CharString>
      <CharString index="61">
        -413 97 413 return
      </CharString>
      <CharString index="62">
        -21 350 -20 hstem
        return
      </CharString>
      <CharString index="63">
        500 rmoveto
        -97 return
      </CharString>
      <CharString index="64">
        -277 -9 callgsubr
        930 -20 hstem
        120 90 vstem
        120 -200 rmoveto
        90 return
      </CharString>
      <CharString index="65">
        87 rmoveto
        -298 129 298 222 hlineto
        -103 callsubr
        15 callgsubr
        return
      </CharString>
      <CharString index="66">
        -24 callsubr
        -23 callgsubr
        return
      </CharString>
      <CharString index="67">
        -12 -9 callgsubr
        195 -61 callsubr
        return
      </CharString>
      <CharString index="68">
        rmoveto
        70 hlineto
        20 292 rlineto
        -110 hlineto
        return
      </CharString>
      <CharString index="69">
        rmoveto
        142 -82 return
      </CharString>
      <CharString index="70">
        401 -45 callgsubr
        return
      </CharString>
      <CharString index="71">
        -21 502 -20 hstem
        return
      </CharString>
      <CharString index="72">
        hstemhm
        80 97 return
      </CharString>
      <CharString index="73">
        -47 callgsubr
        hmoveto
        -84 callgsubr
        return
      </CharString>
      <CharString index="74">
        hlineto
        -103 callgsubr
        -113 100 90 return
      </CharString>
      <CharString index="75">
        62 rmoveto
        -85 callsubr
        return
      </CharString>
      <CharString index="76">
        199 -10 rlineto
        85 vlineto
        -199 -10 return
      </CharString>
      <CharString index="77">
        90 205 90 return
      </CharString>
      <CharString index="78">
        241 -336 -241 hlineto
        endchar
      </CharString>
      <CharString index="79">
        -209 -200 70 360 70 360 70 hstem
        cntrmask 11100000
        return
      </CharString>
      <CharString index="80">
        -104 callsubr
        249 -218 -275 80 -100 -103 hlineto
        return
      </CharString>
      <CharString index="81">
        90 -74 callsubr
        -10 callgsubr
        return
      </CharString>
      <CharString index="82">
        11 callsubr
        143 87 return
      </CharString>
      <CharString index="83">
        hstem
        122 75 135 75 vstem
        return
      </CharString>
      <CharString index="84">
        hlineto
        hintmask 11110000
        -120 return
      </CharString>
      <CharString index="85">
        98 -5 100 605 -20 return
      </CharString>
      <CharString index="86">
        97 201 97 return
      </CharString>
      <CharString index="87">
        -20 -35 callgsubr
        return
      </CharString>
      <CharString index="88">
        213 -20 hstem
        return
      </CharString>
      <CharString index="89">
        -500 97 return
      </CharString>
      <CharString index="90">
        rmoveto
        -513 -720 rlineto
        90 hlineto
        513 720 rlineto
        return
      </CharString>
      <CharString index="91">
        -21 149 -20 hstem
        100 -21 callsubr
        vstem
        170 return
      </CharString>
      <CharString index="92">
        hstemhm
        90 100 return
      </CharString>
      <CharString index="93">
        -46 callsubr
        143 87 hstemhm
        132 97 return
      </CharString>
      <CharString index="94">
        90 218 100 212 90 return
      </CharString>
      <CharString index="95">
        -20 -72 callsubr
        vstem
        177 return
      </CharString>
      <CharString index="96">
        228 -20 hstem
        return
      </CharString>
      <CharString index="97">
        255 100 vstem
        return
      </CharString>
      <CharString index="98">
        -179 -21 return
      </CharString>
      <CharString index="99">
        550 297 rmoveto
        -51 callgsubr
        return
      </CharString>
      <CharString index="100">
        vlineto
        -103 callsubr
        -151 hlineto
        -71 -41 rlineto
        return
      </CharString>
      <CharString index="101">
        rmoveto
        107 107 -107 hlineto
        return
      </CharString>
      <CharString index="102">
        -21 128 -20 hstem
        return
      </CharString>
      <CharString index="103">
        rmoveto
        205 -235 -205 hlineto
        305 return
      </CharString>
      <CharString index="104">
        -229 -87 248 -121 -182 hlineto
        return
      </CharString>
      <CharString index="105">
        rmoveto
        -255 255 255 hlineto
        endchar
      </CharString>
      <CharString index="106">
        rmoveto
        265 -251 -265 hlineto
        endchar
      </CharString>
      <CharString index="107">
        vlineto
        87 -50 rlineto
        -2 vlineto
        return
      </CharString>
      <CharString index="108">
        -56 callsubr
        hstem
        return
      </CharString>
      <CharString index="109">
        90 -15 callgsubr
        return
      </CharString>
      <CharString index="110">
        hlineto
        71 41 return
      </CharString>
      <CharString index="111">
        -48 callsubr
        vlineto
        return
      </CharString>
      <CharString index="112">
        58 -55 callgsubr
        -74 callsubr
        return
      </CharString>
      <CharString index="113">
        hintmask 11100000
        20 291 rmoveto
        hintmask 11010000
        return
      </CharString>
      <CharString index="114">
        87 -278 326 278 87 return
      </CharString>
      <CharString index="115">
        vlineto
        -103 callsubr
        -223 -90 return
      </CharString>
      <CharString index="116">
        -221 1 -21 740 -20 hstem
        return
      </CharString>
      <CharString index="117">
        -71 -41 -71 41 rlineto
        return
      </CharString>
      <CharString index="118">
        -120 326 hlineto
        return
      </CharString>
      <CharString index="119">
        0 90 610 -20 return
      </CharString>
      <CharString index="120">
        101 87 hlineto
        return
      </CharString>
      <CharString index="121">
        -325 hlineto
        return
      </CharString>
      <CharString index="122">
        -163 hlineto
        return
      </CharString>
      <CharString index="123">
        rlineto
        -246 return
      </CharString>
</ttFont>
